<?xml version="1.0" standalone="no"?><!DOCTYPE svg PUBLIC "-//W3C//DTD SVG 1.1//EN" "http://www.w3.org/Graphics/SVG/1.1/DTD/svg11.dtd"><svg t="1675425516826" class="icon" viewBox="0 0 1024 1024" version="1.1" xmlns="http://www.w3.org/2000/svg" p-id="656" xmlns:xlink="http://www.w3.org/1999/xlink" width="200" height="200"><path d="M761.856801 503.016666v-49.896291h-49.846244v-49.846244H265.346171v49.846244h-49.896291v49.896291h-49.846244v149.588779h49.846244v149.638825h49.896291v49.89629h49.846244v49.846244h346.921851v-49.846244h49.896291v-49.89629h49.846244v-149.638825h49.89629v-149.588779h-49.89629z" fill="#EC1C24" p-id="657"></path><path d="M463.730218 353.377841h49.896291v99.742534h-49.896291zM513.626509 253.635306h49.89629v99.742535h-49.89629z" fill="#9E2E21" p-id="658"></path><path d="M463.730218 353.377841h49.896291v49.89629h-49.896291z" fill="#9E2E21" p-id="659"></path><path d="M612.268022 253.635306h99.742535v49.896291h-99.742535z" fill="#009247" p-id="660"></path><path d="M712.010557 203.739016v-49.846244h-99.742535v49.846244h-48.795269v49.89629h198.384048v-49.89629h-49.846244z" fill="#24B24B" p-id="661"></path><path d="M265.346171 802.24427h49.89629v49.89629h-49.89629z" fill="#D12027" p-id="662"></path><path d="M265.346171 556.115928h49.89629v96.489517h-49.89629z" fill="#F9C3BF" p-id="663"></path><path d="M315.192415 453.020282h49.89629v103.095646h-49.89629z" fill="#F8BFC2" p-id="664"></path><path d="M612.268022 403.224085h99.742535v49.89629h-99.742535zM560.620107 802.24427h151.39045v49.89629h-151.39045zM315.192415 852.14056h346.921851v49.896291H315.192415zM662.114266 453.120375h99.742535v49.896291H662.114266zM612.268022 652.605445h149.638825v149.638825h-149.638825z" fill="#D12027" p-id="665"></path><path d="M662.114266 503.016666h149.638825v149.638825h-149.638825z" fill="#D12027" p-id="666"></path><path d="M712.010557 203.739016h49.89629v49.89629h-49.89629z" fill="#009348" p-id="667"></path></svg>